<?xml version="1.0" standalone="no"?>
<!DOCTYPE svg PUBLIC "-//W3C//DTD SVG 20010904//EN"
 "http://www.w3.org/TR/2001/REC-SVG-20010904/DTD/svg10.dtd">
<svg version="1.0" xmlns="http://www.w3.org/2000/svg"
 width="3613.000000pt" height="1553.000000pt" viewBox="0 0 3613.000000 1553.000000"
 preserveAspectRatio="xMidYMid meet">

<g transform="translate(0.000000,1553.000000) scale(0.100000,-0.100000)"
fill="#000000" stroke="none">
<path d="M6402 12279 c-191 -26 -415 -101 -584 -195 -694 -389 -1012 -1202
-762 -1952 43 -129 136 -314 217 -429 80 -113 277 -310 390 -390 184 -129 417
-228 648 -275 96 -19 144 -23 304 -22 167 0 206 3 316 27 164 35 276 74 430
153 397 204 700 572 824 999 125 433 65 902 -165 1288 -239 402 -629 678
-1095 777 -117 25 -404 35 -523 19z m523 -95 c57 -10 130 -38 161 -61 18 -12
52 -25 75 -29 24 -4 49 -11 56 -16 12 -9 21 -12 92 -23 19 -3 44 -11 55 -18
12 -8 37 -19 56 -26 41 -13 126 -75 219 -160 36 -33 83 -74 104 -91 42 -36 47
-51 15 -43 -22 6 -21 5 3 -15 39 -31 68 -94 54 -117 -7 -13 -7 -19 3 -22 6 -3
12 -13 12 -23 0 -23 -32 -30 -93 -21 -35 6 -50 4 -58 -6 -6 -7 -29 -13 -50
-13 -28 0 -39 -4 -39 -15 0 -8 -4 -23 -9 -33 -6 -9 -12 -29 -16 -44 -6 -32
-18 -35 -43 -10 -9 9 -25 16 -33 14 -20 -4 -101 87 -95 105 3 7 0 10 -7 8 -18
-7 -69 99 -54 114 6 6 17 11 24 11 7 0 13 4 13 9 0 4 -11 6 -25 3 -34 -6 -56
14 -49 44 4 17 2 24 -9 24 -9 0 -17 13 -21 34 -8 41 -78 118 -121 134 -16 6
-50 12 -75 15 -32 3 -55 12 -74 31 -18 16 -23 26 -15 26 8 1 2 8 -13 16 -16 8
-28 19 -28 23 0 5 28 12 63 16 54 7 59 9 39 18 -13 6 -21 16 -18 24 7 17 -15
17 -40 -2 -10 -8 -31 -15 -45 -15 -20 0 -28 -6 -33 -24 -4 -15 -14 -26 -29
-28 -14 -2 -22 -10 -22 -23 0 -16 -7 -20 -32 -20 l-32 0 27 -22 c40 -33 16
-42 -92 -37 -121 7 -136 10 -136 34 0 18 -17 37 -26 28 -11 -12 24 -60 48 -65
23 -5 26 -8 17 -25 -6 -10 -21 -23 -35 -28 l-25 -10 22 -33 c29 -40 49 -56 72
-57 9 0 17 -4 17 -10 0 -5 9 -14 20 -20 18 -9 20 -8 20 14 0 19 -7 27 -25 32
-14 3 -35 20 -47 37 -20 27 -20 32 -7 56 17 30 58 47 85 37 11 -4 47 -8 82
-10 52 -2 67 -6 87 -27 36 -36 53 -49 65 -49 6 0 35 -14 64 -30 52 -30 76 -64
52 -74 -6 -2 -1 -5 12 -5 12 -1 22 -5 22 -11 0 -5 5 -10 12 -10 16 0 78 -43
78 -53 0 -5 -10 -17 -22 -27 -22 -18 -24 -18 -58 2 l-35 21 33 -33 c37 -38 38
-40 13 -68 -18 -22 -19 -22 -65 -5 -26 10 -60 30 -77 45 -24 22 -40 28 -75 28
-38 0 -45 3 -42 18 2 10 13 17 28 18 14 0 37 12 53 26 l27 26 -24 4 c-14 3
-29 1 -35 -5 -11 -11 -41 -2 -41 13 0 6 10 15 23 20 17 7 18 9 4 9 -10 1 -20
8 -24 17 -5 15 -7 15 -15 0 -11 -20 -32 -21 -24 -1 3 8 1 15 -3 15 -5 0 -15 2
-23 5 -16 6 -19 -46 -3 -58 14 -10 -31 -47 -59 -47 -15 0 -6 -9 32 -31 49 -29
66 -49 41 -49 -6 0 -19 -10 -28 -22 -10 -12 -23 -18 -29 -14 -18 11 -14 24 9
31 17 6 19 9 8 16 -8 5 -20 2 -30 -7 -14 -12 -20 -12 -43 0 -16 8 -23 17 -17
21 6 3 11 14 10 23 0 12 -3 11 -9 -5 -6 -16 -18 -23 -35 -23 -14 0 -28 -7 -31
-15 -4 -8 -12 -15 -19 -15 -18 0 -65 -65 -65 -89 0 -12 7 -21 15 -21 8 0 19
-9 25 -21 7 -12 18 -18 26 -15 8 3 42 -8 74 -24 33 -17 73 -30 90 -30 27 0 30
-3 30 -30 0 -35 42 -84 59 -67 7 7 6 20 -4 43 -13 32 -13 34 13 46 35 17 40
51 11 72 -18 12 -20 18 -10 30 9 11 10 24 2 50 -5 21 -6 38 0 41 18 11 108 -8
125 -26 9 -11 25 -19 36 -19 12 0 18 -7 18 -23 0 -12 9 -30 20 -40 21 -18 50
-13 50 8 0 29 21 24 54 -12 20 -21 39 -47 42 -58 8 -24 22 -37 57 -52 15 -7
27 -17 27 -23 0 -5 7 -10 15 -10 14 0 25 -27 30 -74 1 -11 3 -24 4 -28 0 -5 9
-8 19 -8 17 0 42 -36 42 -60 0 -5 -16 -9 -35 -8 -19 1 -35 5 -35 10 0 4 -14 8
-30 8 -40 0 -47 22 -20 60 17 24 18 30 6 30 -8 0 -18 -4 -21 -10 -3 -5 -17
-10 -30 -10 -18 0 -23 -4 -19 -15 7 -17 -9 -20 -35 -6 -14 8 -17 5 -16 -16 0
-29 42 -58 62 -41 7 5 17 7 23 3 22 -14 8 -33 -35 -45 -25 -7 -48 -17 -51 -21
-3 -5 -14 -9 -26 -9 -15 0 -19 5 -15 19 4 19 4 19 -37 0 -22 -10 -41 -24 -41
-31 -1 -24 -16 -38 -41 -38 -13 0 -24 -4 -24 -9 0 -5 -6 -16 -12 -23 -22 -22
-41 -66 -34 -76 7 -12 -31 -52 -49 -52 -6 0 -24 -14 -40 -30 l-29 -30 18 -54
c19 -54 16 -76 -8 -76 -17 0 -46 43 -46 69 0 26 -8 30 -80 38 -40 4 -60 2 -58
-5 4 -14 -5 -15 -51 -7 -26 4 -50 1 -79 -11 -39 -18 -40 -19 -47 -81 -10 -98
24 -143 100 -129 24 5 35 13 39 30 4 18 14 25 43 29 43 5 62 -5 45 -25 -5 -7
-13 -30 -17 -50 l-7 -38 40 0 c24 0 47 -7 56 -16 9 -8 16 -16 16 -17 0 -1 -4
-16 -9 -34 -7 -25 -5 -35 10 -52 21 -22 49 -27 65 -11 6 6 20 4 39 -6 27 -14
30 -14 45 4 28 36 140 69 140 41 0 -13 83 -26 114 -17 17 4 32 4 35 0 4 -4 29
-24 56 -44 36 -26 58 -35 80 -33 36 4 85 -23 85 -47 0 -10 5 -18 11 -18 6 0 9
-8 6 -19 -5 -20 9 -24 152 -40 36 -4 66 -12 69 -19 2 -7 12 -12 23 -12 35 0
23 -47 -25 -98 -25 -26 -51 -67 -59 -90 -24 -70 -65 -119 -121 -147 -66 -32
-86 -48 -86 -70 0 -26 -127 -173 -153 -177 -12 -2 -23 -11 -25 -23 -6 -30 -23
-46 -69 -67 -24 -10 -43 -25 -43 -32 0 -8 -7 -16 -15 -20 -8 -3 -15 -12 -15
-20 0 -7 -7 -16 -15 -20 -8 -3 -15 -12 -15 -21 0 -8 -3 -15 -7 -15 -5 0 -14
-4 -22 -9 -12 -8 -12 -12 -2 -24 10 -12 5 -22 -24 -54 -19 -21 -35 -43 -35
-50 0 -22 12 -43 26 -43 19 0 18 -16 -2 -24 -32 -12 -75 -6 -81 12 -3 9 -14
24 -24 32 -16 12 -17 21 -10 47 6 20 5 35 -1 41 -12 12 -1 35 12 27 13 -8 22
30 25 102 2 38 12 81 24 106 12 24 25 63 30 88 5 24 16 72 26 107 25 97 19
122 -37 152 -39 21 -54 38 -82 92 -19 37 -44 76 -55 87 -23 23 -27 46 -11 56
6 3 10 19 10 35 0 19 12 42 35 67 37 41 43 71 23 116 -15 30 -26 34 -34 12 -4
-8 -10 -15 -15 -15 -19 0 -119 51 -119 62 0 19 -39 45 -88 58 -26 7 -57 22
-69 33 -16 14 -29 18 -48 13 -27 -7 -67 3 -135 31 -71 30 -85 41 -88 71 -2 20
-19 45 -50 75 -26 25 -62 61 -79 81 -18 20 -33 33 -33 28 0 -5 9 -17 19 -26
11 -10 25 -31 31 -47 7 -16 16 -29 21 -29 5 0 9 -9 9 -20 0 -11 -3 -20 -7 -20
-13 1 -63 48 -63 59 0 6 -13 17 -30 26 -31 16 -40 35 -17 35 8 1 6 5 -4 13 -9
7 -26 30 -38 52 -12 24 -36 48 -58 60 -35 19 -59 49 -84 105 -7 15 -9 51 -5
93 8 89 1 112 -42 137 -28 17 -33 23 -21 30 17 11 0 45 -22 45 -8 0 -15 12
-17 28 -2 15 -8 27 -13 27 -6 0 -7 -4 -4 -10 15 -24 -25 -7 -57 24 -49 48 -69
56 -138 56 -50 0 -67 -5 -95 -26 -18 -14 -42 -24 -52 -22 -12 2 -18 -3 -18
-17 0 -30 -15 -47 -36 -42 -10 3 -21 1 -24 -4 -6 -9 -133 -85 -161 -96 -37
-14 -6 18 61 62 63 42 67 46 38 42 -18 -2 -33 0 -33 4 0 11 -42 8 -58 -4 -7
-6 -16 -7 -20 -3 -4 4 1 13 11 20 9 7 17 17 17 21 0 13 42 55 55 55 6 0 20 7
31 15 16 13 13 13 -20 -1 -26 -10 -42 -12 -49 -5 -7 7 -16 7 -29 0 -14 -7 -18
-6 -18 6 0 8 8 15 18 15 10 0 22 3 26 8 4 4 11 7 14 7 4 1 18 7 31 14 18 10
21 15 10 22 -15 9 38 60 120 114 49 33 232 78 314 78 23 0 44 2 47 6 11 13
122 61 130 56 4 -3 10 1 13 7 3 11 9 11 26 0 12 -7 21 -8 21 -2 0 6 30 9 79 7
71 -3 78 -1 73 15 -2 10 -8 18 -12 18 -5 0 -11 9 -15 19 -6 20 -6 20 -26 0
-20 -20 -38 -23 -76 -13 l-21 6 25 49 c14 27 33 49 42 50 9 1 37 3 64 5 31 3
58 -1 79 -12 19 -10 42 -14 61 -10 17 3 36 1 44 -5 11 -9 12 -9 7 4 -4 11 4
21 25 32 36 18 55 12 46 -15 -9 -28 12 -69 40 -76 14 -3 25 -12 25 -19 0 -20
-29 -45 -53 -46 -22 0 -22 0 1 -10 34 -13 107 6 81 21 -17 11 16 44 36 37 10
-4 13 2 13 23 -1 26 -3 28 -20 19 -15 -8 -24 -7 -36 4 -9 8 -27 18 -39 21 -30
9 -29 20 3 45 33 26 94 29 94 4 0 -15 1 -15 13 2 12 15 12 20 -2 34 -9 9 -17
13 -19 9 -5 -12 -62 -10 -62 2 0 6 -11 10 -25 10 -14 0 -25 -4 -25 -9 0 -6
-21 -13 -47 -17 -27 -3 -61 -13 -77 -22 -25 -12 -40 -13 -98 -2 -38 6 -80 9
-93 6 -38 -10 -30 15 14 45 49 34 107 49 98 25 -5 -13 -3 -14 12 -4 15 9 22 7
42 -13 l24 -24 3 23 c4 29 31 41 44 19 5 -9 15 -14 24 -10 9 3 20 0 24 -8 17
-26 19 -3 3 29 -9 18 -13 35 -10 39 9 8 38 -17 32 -27 -8 -12 20 -19 36 -9 24
15 79 11 79 -6 0 -9 9 -15 22 -15 21 0 21 0 2 14 -30 23 -8 31 56 20 33 -6 60
-6 60 -2 0 4 -7 8 -15 8 -8 0 -15 6 -15 13 0 8 -20 28 -45 46 -25 18 -45 38
-45 45 0 24 42 58 66 53 13 -2 21 0 18 5 -8 13 49 27 134 32 23 2 45 6 49 9 6
7 84 2 138 -9z m-435 -100 c0 -11 -5 -14 -16 -10 -9 3 -18 6 -20 6 -3 0 -2 5
1 10 10 16 35 12 35 -6z m-55 -24 c15 0 45 -27 45 -39 0 -14 -63 -22 -71 -10
-4 6 -12 9 -17 5 -9 -6 -32 21 -32 38 0 7 33 14 48 10 8 -2 20 -4 27 -4z m109
-25 c8 -8 19 -15 25 -15 6 0 11 -4 11 -10 0 -5 -12 -10 -28 -10 -29 0 -72 24
-72 41 0 15 47 10 64 -6z m-244 -16 c0 -33 -22 -49 -65 -49 -25 0 -45 4 -45 8
0 11 72 51 93 52 9 0 17 -5 17 -11z m-710 -199 c0 -5 -4 -10 -10 -10 -5 0 -10
5 -10 10 0 6 5 10 10 10 6 0 10 -4 10 -10z m-30 -30 c0 -5 -4 -10 -10 -10 -5
0 -10 5 -10 10 0 6 5 10 10 10 6 0 10 -4 10 -10z m-40 -29 c0 -15 -47 -67 -54
-60 -4 4 6 20 21 38 30 34 33 36 33 22z m1390 -199 c0 -4 -9 -8 -20 -9 -11 -1
-20 2 -20 8 0 5 9 9 20 9 11 0 20 -4 20 -8z m-50 -37 c0 -8 -7 -15 -15 -15
-16 0 -20 12 -8 23 11 12 23 8 23 -8z m-1065 -265 c-4 -6 -1 -17 5 -25 10 -12
9 -15 -3 -15 -9 0 -21 9 -27 19 -14 27 -13 31 11 31 11 0 17 -4 14 -10z m1147
-604 c50 -53 61 -67 54 -73 -3 -3 -12 2 -21 11 -9 9 -21 16 -26 16 -5 0 -8 3
-7 8 5 17 -24 52 -43 52 -11 0 -17 5 -14 10 10 17 23 11 57 -24z m-22 -32 c0
-8 -4 -14 -10 -14 -5 0 -10 9 -10 21 0 11 5 17 10 14 6 -3 10 -13 10 -21z
m-1607 -40 c0 -5 -7 -10 -16 -12 -10 -2 -17 3 -17 12 0 8 -9 18 -20 21 -11 4
-18 11 -14 16 6 11 65 -22 67 -37z m1565 17 c9 -4 38 -18 65 -30 26 -11 47
-25 47 -31 0 -18 -71 -11 -97 10 -14 11 -33 20 -42 20 -10 0 -22 5 -29 12 -9
9 -12 8 -12 -5 0 -9 -4 -17 -10 -17 -5 0 -10 4 -10 10 0 5 -7 7 -15 4 -9 -4
-15 0 -15 9 0 8 6 18 13 20 20 9 86 8 105 -2z m146 -46 c3 -8 16 -15 29 -15
25 0 66 -25 56 -34 -10 -11 -129 -14 -129 -5 0 5 6 12 13 15 15 5 19 34 5 34
-4 0 -8 5 -8 10 0 16 27 12 34 -5z m-80 -54 c10 -15 -33 -20 -45 -5 -9 11 -7
14 14 14 14 0 28 -4 31 -9z m226 -1 c0 -5 -9 -10 -20 -10 -11 0 -20 5 -20 10
0 6 9 10 20 10 11 0 20 -4 20 -10z m99 -85 c-1 -29 -1 -29 -9 -5 -4 14 -8 34
-9 45 -1 16 1 17 9 5 5 -8 9 -28 9 -45z"/>
<path d="M7050 12090 c-11 -7 -7 -10 18 -10 17 0 32 5 32 10 0 13 -30 13 -50
0z"/>
<path d="M6658 12022 c-12 -5 -14 -12 -9 -21 7 -11 11 -9 20 8 7 11 10 21 9
20 -2 0 -11 -3 -20 -7z"/>
<path d="M6678 11950 c19 -4 46 -4 60 0 21 6 13 8 -33 8 -51 0 -55 -1 -27 -8z"/>
<path d="M6255 11690 c3 -5 8 -10 11 -10 2 0 4 5 4 10 0 6 -5 10 -11 10 -5 0
-7 -4 -4 -10z"/>
<path d="M6175 11680 c-4 -7 3 -8 22 -4 38 9 42 14 10 14 -14 0 -29 -5 -32
-10z"/>
<path d="M6044 11601 c3 -5 15 -7 26 -4 28 7 25 13 -6 13 -14 0 -23 -4 -20 -9z"/>
<path d="M6155 11501 c3 -5 -1 -12 -7 -14 -8 -4 -7 -6 4 -6 23 -1 32 15 12 23
-8 3 -13 2 -9 -3z"/>
<path d="M7155 11190 c3 -5 8 -10 11 -10 2 0 4 5 4 10 0 6 -5 10 -11 10 -5 0
-7 -4 -4 -10z"/>
<path d="M6658 11161 c-28 -16 -37 -31 -19 -31 6 0 13 5 16 10 3 6 15 10 26
10 10 0 19 -4 19 -10 0 -5 11 -10 25 -10 31 0 32 11 3 30 -31 19 -39 19 -70 1z"/>
<path d="M6724 11102 c-16 -10 -34 -71 -24 -77 12 -7 21 10 14 28 -3 8 2 22
12 31 17 18 16 30 -2 18z"/>
<path d="M6787 11090 c3 -10 11 -25 19 -31 11 -9 14 -6 14 20 0 24 -4 31 -19
31 -14 0 -18 -5 -14 -20z"/>
<path d="M6820 11020 c-9 -6 -10 -10 -3 -10 6 0 15 5 18 10 8 12 4 12 -15 0z"/>
<path d="M6115 10760 c3 -5 8 -10 11 -10 2 0 4 5 4 10 0 6 -5 10 -11 10 -5 0
-7 -4 -4 -10z"/>
<path d="M21215 9640 c-729 -50 -1311 -362 -1538 -824 -92 -186 -122 -329
-121 -571 1 -376 104 -647 332 -875 285 -283 721 -442 1487 -540 412 -53 602
-99 780 -187 177 -89 277 -190 335 -338 34 -86 35 -268 2 -372 -75 -240 -311
-412 -660 -482 -392 -80 -847 -33 -1167 119 -234 111 -429 296 -537 508 -23
45 -44 82 -46 82 -2 0 -170 -86 -373 -191 l-368 -190 10 -27 c61 -162 218
-407 350 -546 314 -332 733 -515 1324 -577 194 -21 629 -16 810 9 529 72 907
235 1186 512 246 244 369 532 386 904 19 434 -115 806 -379 1051 -208 192
-516 336 -918 428 -191 45 -328 68 -630 107 -508 66 -752 142 -904 281 -237
218 -167 605 144 790 242 144 664 195 1020 123 227 -46 473 -162 639 -303 51
-43 139 -141 159 -177 8 -15 57 8 365 167 l357 183 -41 75 c-65 121 -146 228
-254 336 -317 316 -762 487 -1365 525 -180 11 -220 11 -385 0z"/>
<path d="M3170 9634 c0 -3 647 -1127 1438 -2496 1563 -2709 1480 -2572 1624
-2666 217 -141 503 -146 727 -13 42 24 97 71 141 118 74 80 192 283 2815 4831
l135 233 -798 -3 c-722 -4 -803 -6 -857 -21 -166 -49 -309 -146 -394 -270 -16
-23 -331 -566 -701 -1207 -369 -641 -675 -1169 -680 -1173 -8 -9 -101 124
-183 263 -30 52 -315 545 -632 1095 -317 550 -595 1024 -618 1054 -82 106
-227 200 -369 238 -56 15 -150 17 -855 20 -436 2 -793 1 -793 -3z"/>
<path d="M30265 9569 c-484 -53 -940 -264 -1260 -584 -262 -262 -450 -614
-529 -993 -48 -230 -51 -281 -51 -892 0 -639 3 -682 69 -944 92 -360 245 -640
491 -895 319 -330 747 -537 1245 -603 138 -18 440 -15 585 6 753 108 1353 563
1615 1225 56 142 106 326 132 495 22 134 23 169 23 726 0 521 -2 598 -19 705
-77 500 -266 880 -592 1195 -298 287 -663 465 -1109 541 -140 24 -458 33 -600
18z m455 -855 c47 -9 125 -29 174 -45 414 -138 696 -475 782 -934 17 -90 19
-154 19 -630 0 -591 -2 -618 -71 -824 -140 -421 -469 -706 -909 -787 -123 -22
-386 -15 -495 15 -241 64 -409 160 -564 321 -163 169 -260 359 -318 623 -22
99 -23 118 -23 657 0 539 1 558 23 657 45 204 120 375 225 515 259 344 707
511 1157 432z"/>
<path d="M25665 9539 c-695 -53 -1257 -372 -1494 -847 -72 -143 -131 -383
-131 -531 l0 -51 445 0 445 0 0 33 c0 51 28 144 62 211 44 84 172 209 270 264
90 51 230 103 348 128 131 29 474 27 626 -4 471 -95 724 -347 724 -721 0 -227
-93 -378 -296 -483 -183 -95 -345 -124 -754 -138 -531 -17 -831 -78 -1155
-235 -345 -167 -567 -412 -673 -745 -59 -184 -62 -236 -62 -999 l0 -691 1925
0 1925 0 0 420 0 420 -1480 0 -1480 0 0 208 c0 251 10 325 54 417 91 191 295
310 631 370 55 10 199 20 370 25 331 11 485 23 655 51 456 76 779 243 981 508
65 86 151 262 184 376 51 177 60 253 59 500 0 250 -11 332 -70 502 -130 379
-433 671 -876 843 -354 138 -813 201 -1233 169z"/>
<path d="M10570 7110 l0 -2380 1780 0 1780 0 0 440 0 440 -1335 0 -1335 0 0
540 0 540 1285 0 1285 0 0 415 0 415 -1285 0 -1285 0 0 550 0 550 1335 0 1335
0 0 435 0 435 -1780 0 -1780 0 0 -2380z"/>
<path d="M14830 7110 l0 -2380 445 0 445 0 0 795 0 795 433 0 434 0 692 -795
693 -795 529 0 529 0 0 34 c0 31 -66 109 -716 843 l-715 808 48 13 c326 85
550 202 728 377 220 217 347 477 401 825 25 155 22 422 -4 570 -113 630 -559
1087 -1208 1239 -213 49 -264 51 -1541 51 l-1193 0 0 -2380z m2480 1526 c236
-56 410 -187 506 -381 66 -135 79 -194 79 -365 -1 -169 -14 -229 -78 -360 -33
-68 -59 -103 -127 -171 -47 -47 -110 -100 -140 -117 -79 -44 -221 -89 -320
-101 -52 -7 -357 -11 -797 -11 l-713 0 0 766 0 765 758 -4 c680 -3 765 -5 832
-21z"/>
</g>
</svg>
