<?xml version="1.0" standalone="no"?>
<!DOCTYPE svg PUBLIC "-//W3C//DTD SVG 20010904//EN"
 "http://www.w3.org/TR/2001/REC-SVG-20010904/DTD/svg10.dtd">
<svg version="1.0" xmlns="http://www.w3.org/2000/svg"
 width="108.000000pt" height="30.000000pt" viewBox="0 0 108.000000 30.000000"
 preserveAspectRatio="xMidYMid meet">

<g transform="translate(0.000000,30.000000) scale(0.100000,-0.100000)"
fill="#000000" stroke="none">
<path d="M92 252 c-18 -6 -15 -37 6 -55 21 -19 52 -23 52 -6 0 18 -45 66 -58
61z"/>
<path d="M161 246 c-10 -11 -8 -16 5 -24 16 -9 16 -12 4 -29 -14 -16 -14 -17
3 -4 9 7 17 26 17 42 0 32 -11 37 -29 15z"/>
<path d="M20 194 c0 -17 106 -184 117 -184 10 0 113 159 113 175 0 3 -13 5
-29 5 -24 0 -34 -8 -56 -46 l-27 -47 -30 52 c-25 43 -34 51 -59 51 -16 0 -29
-3 -29 -6z"/>
</g>
</svg>
