<?xml version="1.0" standalone="no"?>
<!DOCTYPE svg PUBLIC "-//W3C//DTD SVG 20010904//EN"
 "http://www.w3.org/TR/2001/REC-SVG-20010904/DTD/svg10.dtd">
<svg version="1.0" xmlns="http://www.w3.org/2000/svg"
 width="45.000000pt" height="45.000000pt" viewBox="0 0 45.000000 45.000000"
 preserveAspectRatio="xMidYMid meet">

<g transform="translate(0.000000,45.000000) scale(0.100000,-0.100000)"
fill="#000000" stroke="none">
<path d="M170 420 c-13 -8 -12 -10 3 -10 9 0 17 5 17 10 0 12 -1 12 -20 0z"/>
<path d="M257 383 c3 -7 0 -13 -6 -13 -19 0 -12 -28 9 -35 11 -3 20 -10 20
-14 0 -4 -9 -16 -20 -26 -17 -16 -20 -16 -20 -2 0 8 -18 34 -39 56 -36 37 -41
40 -55 25 -19 -19 -19 -17 -2 -58 15 -37 33 -46 83 -44 46 2 75 36 71 84 -2
30 -7 38 -25 39 -14 1 -19 -3 -16 -12z"/>
<path d="M40 293 c0 -5 35 -66 78 -138 103 -172 102 -172 199 -5 40 68 73 128
73 132 0 4 -20 8 -44 8 -44 0 -44 -1 -82 -65 -21 -36 -41 -65 -45 -65 -4 0
-23 29 -43 64 -20 35 -43 67 -52 70 -22 9 -84 8 -84 -1z"/>
</g>
</svg>
